#!OML:ASF H:\Male1\Project 1\Capture day 1\Session 1\Male1.ASF
:FULLY-SPECIFIED
:DEGREES
1884
root 17.4612 14.7884 1.33134 1053.31 -94.9114 -1053.67
lowerback 25.2748 0.785508 0.767237
upperback 4.94505 0.663033 -1.31078
thorax -8.54025 0.104327 -2.07437
lowerneck -38.0154 6.2679 0.124393
upperneck 2.98845 -62.2264 -1.80613
head 225.491 -117.15 -7.80228
rclavicle -5.76476e-015 7.95139e-016
rhumerus -34.3377 -6.33509 -34.7231
rradius 71.0595
rwrist -24.161
rhand -31.1273 -3.35263
rfingers 7.12502
rthumb -4.40609 -33.2868
lclavicle -5.76476e-015 7.95139e-016
lhumerus -32.2127 -0.539606 24.515
lradius 75.5557
lwrist 5.9813
lhand -13.6231 9.08291
lfingers 7.12502
lthumb 12.4925 38.6895
rfemur -19.701 0.648539 22.8669
rtibia 54.9716
rfoot -31.434 -4.67216
rtoes 12.5474
lfemur -22.1637 -4.85309 -20.1646
ltibia 49.4812
lfoot -21.9186 13.1205
ltoes 3.25698
1885
root 17.4279 14.8864 1.34673 1052.74 -95.2785 -1052.95
lowerback 24.1485 0.814649 0.851174
upperback 4.70627 0.767051 -1.22746
thorax -8.22085 0.170831 -2.04806
lowerneck -37.6902 6.48756 0.203955
upperneck 2.71688 -61.3675 -1.56353
head 224.764 -117.861 -7.50491
rclavicle 6.95746e-015 -1.90833e-014
rhumerus -34.3843 -6.63454 -33.1539
rradius 70.4175
rwrist -24.467
rhand -30.841 -3.2247
rfingers 7.12502
rthumb -4.12964 -33.1644
lclavicle 6.95746e-015 -1.90833e-014
lhumerus -32.4026 -0.563254 22.8259
lradius 75.1114
lwrist 6.28062
lhand -13.8287 8.9792
lfingers 7.12502
lthumb 12.2943 38.5978
rfemur -18.7949 1.4033 23.1168
rtibia 53.1803
rfoot -30.9323 -5.0375
rtoes 13.1527
lfemur -20.8905 -5.01745 -19.9281
ltibia 47.2261
lfoot -22.1826 12.8121
ltoes 2.66041
1886
root 17.3888 14.9801 1.3656 1054.34 -95.4244 -1054.51
lowerback 23.2396 0.841551 0.784159
upperback 4.36174 0.823088 -1.23448
thorax -8.12828 0.215063 -2.02391
lowerneck -37.1551 6.66307 0.2651
upperneck 2.66779 -60.7889 -1.49899
head 224.216 -118.42 -7.28711
rclavicle 2.34566e-014 0
rhumerus -34.6467 -6.6293 -31.5284
rradius 69.7634
rwrist -24.4393
rhand -30.7576 -3.33106
rfingers 7.12502
rthumb -4.04909 -33.2723
lclavicle 2.34566e-014 0
lhumerus -32.4523 -0.838813 21.1913
lradius 74.4173
lwrist 6.72516
lhand -14.0017 8.9105
lfingers 7.12502
lthumb 12.1275 38.539
rfemur -17.9124 1.98006 22.9412
rtibia 51.6685
rfoot -30.4616 -5.17812
rtoes 12.7345
lfemur -19.4827 -5.44861 -20.0753
ltibia 45.0402
lfoot -22.5233 12.9111
ltoes 1.74722
1887
root 17.3464 15.0644 1.38734 1056.66 -95.6294 -1056.83
lowerback 22.2939 0.886869 0.682139
upperback 4.116 0.886254 -1.25637
thorax -7.90208 0.2619 -1.99428
lowerneck -36.7483 6.89413 0.254674
upperneck 2.46305 -59.9719 -1.30976
head 223.63 -119.175 -7.16058
rclavicle 1.17283e-014 2.06736e-014
rhumerus -34.6673 -6.54821 -29.9749
rradius 69.0109
rwrist -24.5121
rhand -30.9308 -3.6605
rfingers 7.12502
rthumb -4.21635 -33.5985
lclavicle 1.17283e-014 2.06736e-014
lhumerus -32.29 -0.830321 19.601
lradius 73.3574
lwrist 6.99176
lhand -14.1703 8.80186
lfingers 7.12502
lthumb 11.9649 38.4399
rfemur -17.0694 2.68476 22.6647
rtibia 50.3454
rfoot -30.1662 -4.91271
rtoes 11.9561
lfemur -18.0434 -6.22439 -20.3212
ltibia 43.0335
lfoot -22.8313 13.5927
ltoes 1.62716
1888
root 17.3121 15.1388 1.4073 1055.76 -95.9385 -1055.82
lowerback 21.4074 0.861421 0.87684
upperback 3.79676 0.938895 -1.1697
thorax -7.77985 0.297891 -2.01449
lowerneck -36.3167 7.20162 0.189114
upperneck 2.17869 -58.876 -1.06381
head 222.933 -120.172 -7.06008
rclavicle -1.74931e-014 -2.06736e-014
rhumerus -34.448 -6.45341 -28.4381
rradius 67.9682
rwrist -24.6819
rhand -30.8713 -3.65581
rfingers 7.12502
rthumb -4.15882 -33.595
lclavicle -1.74931e-014 -2.06736e-014
lhumerus -32.0032 -0.735087 18.0342
lradius 72.0729
lwrist 7.26737
lhand -14.3463 8.78653
lfingers 7.12502
lthumb 11.7952 38.4344
rfemur -16.4198 3.65526 22.8057
rtibia 49.1046
rfoot -30.1824 -4.3053
rtoes 11.9119
lfemur -16.9416 -7.39679 -20.1894
ltibia 41.2952
lfoot -22.9256 14.6379
ltoes 3.21641
1889
root 17.2836 15.1967 1.42021 1055.58 -96.1295 -1055.5
lowerback 20.6334 0.863537 0.959358
upperback 3.43089 0.998216 -1.09428
thorax -7.76545 0.337868 -1.98697
lowerneck -35.875 7.44664 0.0614877
upperneck 2.00315 -57.9826 -0.920807
head 222.411 -121.019 -7.04803
rclavicle -8.74653e-015 2.38542e-015
rhumerus -34.2836 -6.26053 -26.8128
rradius 66.7852
rwrist -24.844
rhand -30.5332 -3.51423
rfingers 7.12502
rthumb -3.83235 -33.4595
lclavicle -8.74653e-015 2.38542e-015
lhumerus -31.7233 -0.914567 16.5073
lradius 70.9841
lwrist 7.70216
lhand -14.5196 8.8563
lfingers 7.12502
lthumb 11.6281 38.5137
rfemur -15.9101 4.80408 22.8798
rtibia 47.9023
rfoot -30.7687 -3.68904
rtoes 12.9028
lfemur -16.0723 -8.80232 -20.2154
ltibia 39.8363
lfoot -23.0075 15.8848
ltoes 4.58542
1890
root 17.2542 15.2389 1.42795 1056.47 -96.203 -1056.29
lowerback 19.894 0.863193 0.862565
upperback 3.13914 1.00708 -1.03198
thorax -7.69017 0.356404 -1.85689
lowerneck -35.5747 7.67482 -0.125162
upperneck 1.81149 -57.1145 -0.78427
head 221.905 -121.87 -7.00213
rclavicle -1.98785e-015 -1.59028e-015
rhumerus -34.0571 -5.89386 -25.1616
rradius 65.6758
rwrist -25.0635
rhand -30.2092 -3.84609
rfingers 7.12502
rthumb -3.51949 -33.7968
lclavicle -1.98785e-015 -1.59028e-015
lhumerus -31.587 -1.13572 14.9885
lradius 70.0801
lwrist 8.21224
lhand -14.6994 8.97931
lfingers 7.12502
lthumb 11.4547 38.6464
rfemur -15.468 5.9917 22.7927
rtibia 46.7011
rfoot -32.0453 -3.39652
rtoes 14.0695
lfemur -15.2839 -10.355 -20.4794
ltibia 38.6411
lfoot -23.2758 17.2523
ltoes 5.05721
1891
root 17.2238 15.2711 1.43331 1056.48 -96.1 -1056.07
lowerback 19.0108 0.793333 0.809698
upperback 2.83965 0.93687 -0.954064
thorax -7.54433 0.337358 -1.71287
lowerneck -35.2276 7.84864 -0.246868
upperneck 1.75189 -56.5309 -0.745602
head 221.49 -122.514 -6.89001
rclavicle 2.72335e-014 -9.54166e-015
rhumerus -33.7721 -5.49766 -23.5113
rradius 64.5233
rwrist -25.2757
rhand -29.944 -4.49507
rfingers 7.12502
rthumb -3.26342 -34.4498
lclavicle 2.72335e-014 -9.54166e-015
lhumerus -31.3258 -1.39106 13.468
lradius 69.0267
lwrist 8.71523
lhand -14.9418 9.10471
lfingers 7.12502
lthumb 11.2209 38.7846
rfemur -15.2251 7.23887 22.7167
rtibia 45.4885
rfoot -33.6572 -3.74815
rtoes 15.4478
lfemur -14.7475 -12.0482 -20.7055
ltibia 37.6871
lfoot -23.7242 18.5102
ltoes 5.62753
1892
root 17.1966 15.2915 1.43345 1057.07 -95.7945 -1056.33
lowerback 18.1404 0.742582 0.712255
upperback 2.46044 0.877001 -0.968174
thorax -7.48622 0.32267 -1.64824
lowerneck -34.7837 7.87864 -0.308472
upperneck 1.85996 -56.3968 -0.814443
head 221.246 -122.868 -6.77381
rclavicle -7.95139e-016 1.39149e-014
rhumerus -33.7222 -5.09853 -21.8539
rradius 63.2882
rwrist -25.5174
rhand -29.7661 -4.86237
rfingers 7.12502
rthumb -3.09153 -34.8197
lclavicle -7.95139e-016 1.39149e-014
lhumerus -30.6254 -1.82021 11.9415
lradius 67.7077
lwrist 9.05786
lhand -15.1645 9.11501
lfingers 7.12502
lthumb 11.0061 38.8065
rfemur -15.1129 8.86965 22.5208
rtibia 44.2585
rfoot -35.3991 -4.98562
rtoes 17.586
lfemur -14.5215 -13.5709 -20.9933
ltibia 37.0097
lfoot -24.0866 19.4913
ltoes 6.2588
1893
root 17.1729 15.3031 1.4287 1055.05 -95.6226 -1054.1
lowerback 17.4951 0.697398 0.877256
upperback 2.12111 0.874705 -0.920952
thorax -7.49881 0.325973 -1.68478
lowerneck -34.4574 7.87953 -0.424584
upperneck 1.87272 -56.1241 -0.816575
head 220.867 -123.409 -6.57177
rclavicle 9.34288e-015 3.57812e-015
rhumerus -33.7426 -4.70398 -20.2044
rradius 62.0267
rwrist -25.8532
rhand -29.5532 -4.85005
rfingers 7.12502
rthumb -2.88599 -34.8103
lclavicle 9.34288e-015 3.57812e-015
lhumerus -29.7013 -2.12962 10.458
lradius 66.2207
lwrist 9.07137
lhand -15.297 9.12119
lfingers 7.12502
lthumb 10.8783 38.8194
rfemur -14.8554 11.019 22.7093
rtibia 42.9937
rfoot -37.3924 -6.97016
rtoes 19.6162
lfemur -14.422 -14.6877 -20.9173
ltibia 36.6592
lfoot -24.3478 20.3039
ltoes 6.50203
